<svg width="2055" height="419" viewBox="0 0 2055 419" fill="none" xmlns="http://www.w3.org/2000/svg">
<path d="M641.333 20.0008V40.0008H630.667H620V46.0008V52.0008H614.667H609.333V210.667V369.334H605.333H601.467L601.067 386.267L600.667 403.334L547.067 403.734L493.333 404.001V306.001V208.001H490C486.8 208.001 486.8 207.734 486.4 196.267L486 184.667L464.4 184.267L442.667 184.001V198.667V213.334H428.667H414.667L414.4 288.267C414 362.267 414 363.334 411.333 363.334C408.667 363.334 408.667 362.267 408.267 269.601L408 176.001H402H396V165.334V154.667H373.333H350.667V165.334V176.001H346H341.333V156.134V136.267L336.133 132.134L331.067 128.001L326.267 131.734L321.467 135.334L321.333 158.267V181.334H313.333H305.333V236.801V292.134L298.4 291.734L291.333 291.334L290.933 282.267L290.533 273.334H278.667H266.667V284.001V294.667H237.333H208V311.334V328.001H200.667H193.333V319.334V310.667H174.667H156V320.667V330.667H138H120V364.001V397.334H105.333H90.6667V273.334V149.334H73.3333H56V134.001V118.667H38.6667H21.3333V134.667V150.667H10.6667H0V284.801V418.801C0 418.801 1644.8 416.934 2054.67 416.534V285.867V156.001H2036H2017.33V163.334V170.667H2008H1998.67L1998.4 247.601L1998 324.667H1990.67H1983.33L1982.93 317.601L1982.53 310.667H1963.87H1945.33V320.001V329.334H1926H1906.67V366.801V404.134L1899.73 403.734L1892.67 403.334L1892.27 393.601L1891.87 384.001H1842.67H1793.33V371.334V358.667H1784H1774.67V288.001V217.334H1752.93H1731.33L1718.93 229.734L1706.67 242.001V325.734V409.467L1699.73 409.067L1692.67 408.667L1692.27 393.601L1691.87 378.667H1675.33H1658.8L1658.4 372.934L1658 367.334L1635.07 366.934L1612 366.667V379.334V392.001H1599.33H1586.67V318.001V244.001H1544H1501.33V322.667V401.334H1498H1494.67V228.001V54.6674H1490H1485.33V28.6674V2.66742H1466H1446.67V29.3341V56.0008H1429.33H1412V228.001V400.001H1398.67H1385.33V322.001V244.001H1346.67H1308V322.001V400.001H1300H1292V346.667V293.334H1276H1260V277.334V261.334H1244.67H1229.33V276.001V290.667H1222H1214.67V310.667V330.667H1206.67H1198.67V360.667V390.667H1185.33H1172V261.334V132.001H1132.67H1093.33L1093.07 220.934L1092.67 310.001L1089.07 310.401L1085.33 310.801V275.467V240.001H1066.67H1048V225.601L1047.87 211.334L1043.07 207.867L1038.13 204.401L1031.73 208.267L1025.33 212.267V228.134V244.001H1016H1006.67V268.667V293.334H998H989.333V233.467V173.467L985.733 173.067L982 172.667L981.6 156.934L981.2 141.334H960H938.667V158.667V176.001H926H913.333V290.001V404.001H902.667H892V323.334V242.667H886H880V232.001V221.334H860H840.133L839.733 233.601L839.333 246.001L825.067 246.401L810.667 246.801V319.334V392.001H798.667H786.667V326.667V261.334H764H741.333V266.001V270.667H728H714.667V280.667V290.667H703.333H692V164.001V37.3341H686.667H681.333V21.3341V5.33411H673.333C666.267 5.33411 665.333 5.06742 665.333 2.66742C665.333 0.134086 664.4 0.000762939 653.333 0.000762939H641.333V20.0008Z" fill="#FCFCFC" fill-opacity="0.3"/>
</svg>
