<svg width="28" height="28" viewBox="0 0 28 28" fill="none" xmlns="http://www.w3.org/2000/svg">
<g clip-path="url(#clip0_1050_1063)">
<path d="M14 26C20.6274 26 26 20.6274 26 14C26 7.37258 20.6274 2 14 2C7.37258 2 2 7.37258 2 14C2 20.6274 7.37258 26 14 26Z" fill="#D80027"/>
<path d="M19.8691 13.9996L17.4712 15.1275L18.7481 17.45L16.144 16.9518L15.8142 19.5822L14.0004 17.6477L12.1867 19.5822L11.8568 16.9518L9.25295 17.4499L10.5298 15.1274L8.13184 13.9996L10.5298 12.8718L9.25295 10.5492L11.8567 11.0475L12.1868 8.41699L14.0004 10.3516L15.8143 8.41699L16.144 11.0475L18.7482 10.5492L17.4712 12.8719L19.8691 13.9996Z" fill="#FFDA44"/>
<path d="M13.9998 17.652C16.0169 17.652 17.652 16.0169 17.652 13.9998C17.652 11.9828 16.0169 10.3477 13.9998 10.3477C11.9828 10.3477 10.3477 11.9828 10.3477 13.9998C10.3477 16.0169 11.9828 17.652 13.9998 17.652Z" fill="#D80027"/>
<path d="M12.1737 14C12.0857 14 11.9988 14.0045 11.9131 14.013C11.9162 14.5189 12.0992 14.9818 12.4015 15.3415C12.5627 14.9076 12.8035 14.5119 13.1071 14.1733C12.8171 14.0618 12.5025 14 12.1737 14Z" fill="#FFDA44"/>
<path d="M13.2979 15.9656C13.5172 16.044 13.7534 16.0869 13.9998 16.0869C14.2462 16.0869 14.4824 16.044 14.7018 15.9656C14.5822 15.4963 14.3353 15.0773 13.9998 14.748C13.6643 15.0772 13.4174 15.4963 13.2979 15.9656Z" fill="#FFDA44"/>
<path d="M15.8069 12.9569C15.4461 12.3332 14.7721 11.9131 13.9996 11.9131C13.2271 11.9131 12.5532 12.3331 12.1924 12.9569C12.8502 12.9602 13.4671 13.1391 13.9996 13.448C14.5322 13.1391 15.149 12.9602 15.8069 12.9569Z" fill="#FFDA44"/>
<path d="M14.8926 14.1733C15.1962 14.5119 15.4369 14.9075 15.5982 15.3415C15.9004 14.9818 16.0834 14.5189 16.0866 14.013C16.0008 14.0045 15.9139 14 15.826 14C15.4972 14 15.1826 14.0617 14.8926 14.1733V14.1733Z" fill="#FFDA44"/>
</g>
<defs>
<clipPath id="clip0_1050_1063">
<rect width="24" height="24" fill="white" transform="translate(2 2)"/>
</clipPath>
</defs>
</svg>
