<svg width="147" height="46" viewBox="0 0 147 46" fill="none" xmlns="http://www.w3.org/2000/svg">
<path d="M55.18 25.9124C54.2189 25.9124 53.7383 25.6917 53.7383 25.2503V12.2144C53.7383 11.6626 54.0587 11.3867 54.6995 11.3867H59.3852C61.4677 11.3867 62.9816 11.7247 63.9268 12.4006C64.8879 13.0766 65.3685 14.0353 65.3685 15.2768C65.3685 16.0769 65.1042 16.7597 64.5756 17.3253C64.0629 17.8771 63.3901 18.2909 62.5571 18.5668V18.6496C62.8615 18.7461 63.1738 18.9806 63.4942 19.3531C63.8146 19.7118 64.0789 20.1118 64.2872 20.5532L66.4018 25.1054C66.4819 25.2848 66.5219 25.4158 66.5219 25.4986C66.5219 25.7745 66.0413 25.9124 65.0802 25.9124H64.095C63.7425 25.9124 63.4382 25.8848 63.1818 25.8296C62.9416 25.7607 62.7814 25.6434 62.7013 25.4779L60.8029 21.443C60.5626 21.0291 60.2903 20.7188 59.9859 20.5118C59.6976 20.3049 59.1609 20.2015 58.376 20.2015H57.4388V25.2503C57.4388 25.6917 56.9582 25.9124 55.997 25.9124H55.18ZM57.4388 17.4494H59.7216C60.058 17.4494 60.3624 17.3736 60.6347 17.2218C60.9231 17.0563 61.1474 16.8425 61.3076 16.5804C61.4838 16.3045 61.5719 16.001 61.5719 15.6699C61.5719 15.1871 61.3876 14.8078 61.0192 14.5319C60.6668 14.2422 60.1782 14.0974 59.5534 14.0974H57.4388V17.4494Z" fill="#FD392D"/>
<path d="M69.8918 25.871C69.2511 25.871 68.9307 25.5951 68.9307 25.0434V18.6289V12.2144C68.9307 11.6626 69.2511 11.3867 69.8918 11.3867H78.3262C78.8068 11.3867 79.047 11.7316 79.047 12.4213V13.0628C79.047 13.7525 78.8068 14.0974 78.3262 14.0974H72.6312V17.0977H77.6774C78.158 17.0977 78.3983 17.4425 78.3983 18.1323V18.7737C78.3983 19.4634 78.158 19.8083 77.6774 19.8083H72.6312V23.1604H78.3502C78.8308 23.1604 79.0711 23.5053 79.0711 24.195V24.8364C79.0711 25.5262 78.8308 25.871 78.3502 25.871H69.8918Z" fill="#FD392D"/>
<path d="M83.3192 25.871C82.6784 25.871 82.358 25.5951 82.358 25.0434V18.6289V12.2144C82.358 11.6626 82.6784 11.3867 83.3192 11.3867H88.4615C90.1115 11.3867 91.5052 11.6695 92.6426 12.2351C93.796 12.7869 94.6691 13.6007 95.2618 14.6767C95.8545 15.7527 96.1509 17.0701 96.1509 18.6289C96.1509 19.8014 95.9827 20.836 95.6463 21.7327C95.3099 22.6293 94.8132 23.388 94.1564 24.0088C93.4996 24.6157 92.6907 25.0778 91.7295 25.3951C90.7843 25.7124 89.695 25.871 88.4615 25.871H83.3192ZM86.0826 23.1604H88.4615C89.3265 23.1604 90.0474 22.988 90.6241 22.6431C91.2008 22.2982 91.6334 21.7878 91.9217 21.1119C92.2101 20.436 92.3542 19.6083 92.3542 18.6289C92.3542 17.6495 92.2101 16.8218 91.9217 16.1459C91.6334 15.4699 91.2008 14.9595 90.6241 14.6147C90.0474 14.2698 89.3265 14.0974 88.4615 14.0974H86.0826V18.6289V23.1604Z" fill="#FD392D"/>
<path d="M54.8917 44.8386C54.2509 44.8386 53.9305 44.5627 53.9305 44.0109V31.1819C53.9305 30.6302 54.2509 30.3543 54.8917 30.3543H63.326C63.8066 30.3543 64.0469 30.6991 64.0469 31.3889V32.0303C64.0469 32.72 63.8066 33.0649 63.326 33.0649H57.631V36.0652H62.6772C63.1578 36.0652 63.3981 36.4101 63.3981 37.0998V37.7413C63.3981 38.431 63.1578 38.7759 62.6772 38.7759H57.631V42.1279H63.3501C63.8306 42.1279 64.0709 42.4728 64.0709 43.1625V43.804C64.0709 44.4937 63.8306 44.8386 63.3501 44.8386H54.8917Z" fill="#005BED"/>
<path d="M67.2377 44.88C66.7091 44.88 66.3246 44.8455 66.0843 44.7765C65.844 44.7075 65.7239 44.611 65.7239 44.4868C65.7239 44.3627 65.804 44.1902 65.9641 43.9695L70.9142 37.286L66.5168 31.2233C66.3566 30.9888 66.2765 30.8164 66.2765 30.706C66.2765 30.5957 66.3967 30.506 66.637 30.437C66.8933 30.3543 67.2858 30.3129 67.8144 30.3129H68.7996C69.1521 30.3129 69.4484 30.3405 69.6887 30.3957C69.945 30.4508 70.1292 30.5543 70.2414 30.706L72.9807 34.5547L75.8643 30.706C75.9924 30.5267 76.1767 30.4163 76.417 30.375C76.6733 30.3336 76.9776 30.3129 77.3301 30.3129H78.2672C78.7798 30.3129 79.1563 30.3474 79.3966 30.4163C79.6529 30.4853 79.7811 30.5819 79.7811 30.706C79.7811 30.7612 79.757 30.8371 79.709 30.9336C79.6769 31.0164 79.6209 31.113 79.5408 31.2233L74.9992 37.3274L79.8051 43.9695C79.9493 44.1764 80.0214 44.3489 80.0214 44.4868C80.0214 44.611 79.9012 44.7075 79.6609 44.7765C79.4206 44.8455 79.0362 44.88 78.5075 44.88H77.5704C77.2179 44.88 76.9136 44.8524 76.6572 44.7972C76.417 44.742 76.2407 44.6386 76.1286 44.4868L72.9327 40.0381L69.6166 44.4868C69.4724 44.6661 69.2802 44.7765 69.0399 44.8179C68.7996 44.8593 68.5033 44.88 68.1508 44.88H67.2377Z" fill="#005BED"/>
<path d="M83.655 44.88C82.6938 44.88 82.2133 44.6593 82.2133 44.2178V37.6999V31.1819C82.2133 30.6302 82.5336 30.3543 83.1744 30.3543H88.2206C88.7493 30.3543 89.342 30.4094 89.9988 30.5198C90.6556 30.6164 91.2804 30.8164 91.8731 31.1199C92.4818 31.4234 92.9784 31.8786 93.3629 32.4855C93.7474 33.0925 93.9396 33.8926 93.9396 34.8858C93.9396 35.6859 93.7954 36.3549 93.5071 36.8929C93.2187 37.4309 92.8423 37.8723 92.3777 38.2172C91.9292 38.5483 91.4486 38.8035 90.9359 38.9828C90.4393 39.1483 89.9668 39.2656 89.5182 39.3345C89.0697 39.3897 88.7172 39.4173 88.4609 39.4173H85.9138V44.2178C85.9138 44.6593 85.4332 44.88 84.472 44.88H83.655ZM85.9138 36.686H88.0524C88.2767 36.686 88.509 36.6653 88.7493 36.6239C89.0056 36.5687 89.2379 36.4791 89.4461 36.3549C89.6544 36.217 89.8226 36.0307 89.9507 35.7962C90.0789 35.5617 90.143 35.2582 90.143 34.8858C90.143 34.3892 90.0308 34.0098 89.8066 33.7477C89.5823 33.4856 89.3099 33.3063 88.9896 33.2097C88.6692 33.1132 88.3568 33.0649 88.0524 33.0649H85.9138V36.686Z" fill="#005BED"/>
<path d="M97.6931 44.88C96.7319 44.88 96.2513 44.6593 96.2513 44.2178V31.1819C96.2513 30.6302 96.5717 30.3543 97.2125 30.3543H101.898C103.981 30.3543 105.495 30.6922 106.44 31.3682C107.401 32.0441 107.882 33.0028 107.882 34.2443C107.882 35.0444 107.617 35.7273 107.089 36.2928C106.576 36.8446 105.903 37.2585 105.07 37.5343V37.6171C105.374 37.7137 105.687 37.9482 106.007 38.3206C106.328 38.6793 106.592 39.0793 106.8 39.5208L108.915 44.073C108.995 44.2523 109.035 44.3834 109.035 44.4661C109.035 44.742 108.554 44.88 107.593 44.88H106.608C106.256 44.88 105.951 44.8524 105.695 44.7972C105.455 44.7282 105.294 44.611 105.214 44.4454L103.316 40.4105C103.076 39.9967 102.803 39.6863 102.499 39.4794C102.211 39.2725 101.674 39.169 100.889 39.169H99.9518V44.2178C99.9518 44.6593 99.4712 44.88 98.51 44.88H97.6931ZM99.9518 36.417H102.235C102.571 36.417 102.875 36.3411 103.148 36.1894C103.436 36.0238 103.66 35.81 103.821 35.5479C103.997 35.272 104.085 34.9686 104.085 34.6375C104.085 34.1547 103.901 33.7753 103.532 33.4994C103.18 33.2097 102.691 33.0649 102.066 33.0649H99.9518V36.417Z" fill="#005BED"/>
<path d="M112.405 44.8386C111.764 44.8386 111.444 44.5627 111.444 44.0109V31.1819C111.444 30.6302 111.764 30.3543 112.405 30.3543H120.839C121.32 30.3543 121.56 30.6991 121.56 31.3889V32.0303C121.56 32.72 121.32 33.0649 120.839 33.0649H115.144V36.0652H120.19C120.671 36.0652 120.911 36.4101 120.911 37.0998V37.7413C120.911 38.431 120.671 38.7759 120.19 38.7759H115.144V42.1279H120.863C121.344 42.1279 121.584 42.4728 121.584 43.1625V43.804C121.584 44.4937 121.344 44.8386 120.863 44.8386H112.405Z" fill="#005BED"/>
<path d="M129.22 45.0041C128.003 45.0041 126.978 44.9007 126.145 44.6937C125.312 44.473 124.679 44.2316 124.246 43.9695C123.798 43.7074 123.573 43.4453 123.573 43.1832C123.573 42.9625 123.662 42.7142 123.838 42.4383C124.014 42.1486 124.222 41.8934 124.462 41.6727C124.703 41.452 124.903 41.3417 125.063 41.3417C125.143 41.3417 125.231 41.3692 125.328 41.4244C125.44 41.4658 125.576 41.521 125.736 41.59C126.056 41.7279 126.449 41.8796 126.913 42.0452C127.394 42.2107 127.955 42.2935 128.596 42.2935C128.948 42.2935 129.292 42.259 129.629 42.19C129.981 42.1073 130.27 41.9624 130.494 41.7555C130.734 41.5348 130.854 41.2313 130.854 40.8451C130.854 40.4312 130.67 40.1001 130.302 39.8518C129.933 39.6035 129.461 39.3828 128.884 39.1897C128.323 38.9966 127.747 38.7759 127.154 38.5276C126.737 38.362 126.337 38.1689 125.952 37.9482C125.568 37.7137 125.215 37.4378 124.895 37.1205C124.591 36.8032 124.35 36.4239 124.174 35.9825C123.998 35.5272 123.91 34.9893 123.91 34.3685C123.91 33.3753 124.19 32.5752 124.751 31.9682C125.312 31.3475 126.024 30.8992 126.889 30.6233C127.771 30.3336 128.676 30.1887 129.605 30.1887C130.182 30.1887 130.71 30.2232 131.191 30.2922C131.671 30.3612 132.096 30.4577 132.464 30.5819C132.849 30.6922 133.161 30.8233 133.401 30.975C133.754 31.1957 133.93 31.4165 133.93 31.6372C133.93 31.8165 133.858 32.051 133.714 32.3407C133.586 32.6304 133.417 32.8856 133.209 33.1063C133.001 33.327 132.801 33.4374 132.608 33.4374C132.528 33.4374 132.416 33.4098 132.272 33.3546C132.144 33.2994 131.968 33.2373 131.743 33.1684C131.535 33.0994 131.279 33.0442 130.974 33.0028C130.686 32.9477 130.342 32.9201 129.941 32.9201C129.316 32.9201 128.844 32.9821 128.523 33.1063C128.203 33.2304 127.987 33.3822 127.875 33.5615C127.763 33.7408 127.706 33.9133 127.706 34.0788C127.706 34.4513 127.827 34.7616 128.067 35.0099C128.307 35.2444 128.62 35.4445 129.004 35.61C129.389 35.7755 129.813 35.9411 130.278 36.1066C130.774 36.2859 131.279 36.486 131.791 36.7067C132.304 36.9136 132.777 37.1757 133.209 37.493C133.642 37.8102 133.986 38.2103 134.242 38.6931C134.515 39.1759 134.651 39.7691 134.651 40.4726C134.651 41.3141 134.491 42.0245 134.17 42.6039C133.866 43.1832 133.45 43.6523 132.921 44.0109C132.392 44.3558 131.807 44.611 131.167 44.7765C130.526 44.9282 129.877 45.0041 129.22 45.0041Z" fill="#005BED"/>
<path d="M141.569 45.0041C140.351 45.0041 139.326 44.9007 138.493 44.6937C137.66 44.473 137.027 44.2316 136.595 43.9695C136.146 43.7074 135.922 43.4453 135.922 43.1832C135.922 42.9625 136.01 42.7142 136.186 42.4383C136.362 42.1486 136.571 41.8934 136.811 41.6727C137.051 41.452 137.251 41.3417 137.412 41.3417C137.492 41.3417 137.58 41.3692 137.676 41.4244C137.788 41.4658 137.924 41.521 138.085 41.59C138.405 41.7279 138.797 41.8796 139.262 42.0452C139.743 42.2107 140.303 42.2935 140.944 42.2935C141.296 42.2935 141.641 42.259 141.977 42.19C142.33 42.1073 142.618 41.9624 142.842 41.7555C143.083 41.5348 143.203 41.2313 143.203 40.8451C143.203 40.4312 143.019 40.1001 142.65 39.8518C142.282 39.6035 141.809 39.3828 141.232 39.1897C140.672 38.9966 140.095 38.7759 139.502 38.5276C139.086 38.362 138.685 38.1689 138.301 37.9482C137.916 37.7137 137.564 37.4378 137.243 37.1205C136.939 36.8032 136.699 36.4239 136.523 35.9825C136.346 35.5272 136.258 34.9893 136.258 34.3685C136.258 33.3753 136.539 32.5752 137.099 31.9682C137.66 31.3475 138.373 30.8992 139.238 30.6233C140.119 30.3336 141.024 30.1887 141.953 30.1887C142.53 30.1887 143.059 30.2232 143.539 30.2922C144.02 30.3612 144.444 30.4577 144.813 30.5819C145.197 30.6922 145.51 30.8233 145.75 30.975C146.102 31.1957 146.279 31.4165 146.279 31.6372C146.279 31.8165 146.206 32.051 146.062 32.3407C145.934 32.6304 145.766 32.8856 145.558 33.1063C145.349 33.327 145.149 33.4374 144.957 33.4374C144.877 33.4374 144.765 33.4098 144.621 33.3546C144.492 33.2994 144.316 33.2373 144.092 33.1684C143.884 33.0994 143.627 33.0442 143.323 33.0028C143.035 32.9477 142.69 32.9201 142.29 32.9201C141.665 32.9201 141.192 32.9821 140.872 33.1063C140.552 33.2304 140.335 33.3822 140.223 33.5615C140.111 33.7408 140.055 33.9133 140.055 34.0788C140.055 34.4513 140.175 34.7616 140.415 35.0099C140.656 35.2444 140.968 35.4445 141.353 35.61C141.737 35.7755 142.162 35.9411 142.626 36.1066C143.123 36.2859 143.627 36.486 144.14 36.7067C144.653 36.9136 145.125 37.1757 145.558 37.493C145.99 37.8102 146.335 38.2103 146.591 38.6931C146.863 39.1759 146.999 39.7691 146.999 40.4726C146.999 41.3141 146.839 42.0245 146.519 42.6039C146.214 43.1832 145.798 43.6523 145.269 44.0109C144.741 44.3558 144.156 44.611 143.515 44.7765C142.874 44.9282 142.226 45.0041 141.569 45.0041Z" fill="#005BED"/>
<path d="M32.533 0H8.94657C7.9525 0.180739 6.0186 1.08443 6.23549 3.2533C6.45237 5.42216 8.13324 6.14512 8.94657 6.23549H32.533C40.124 6.23549 42.8893 9.97677 43.1062 16.2665C43.3231 22.5562 38.4973 26.0264 34.4307 26.0264L16.5376 26.0264C14.9109 26.0264 12.4506 25.1193 12.4506 22.4489C12.4506 20.0089 14.2784 19.0679 15.7243 18.9776L33.0752 18.9776C34.7109 18.9776 36.22 17.9869 36.22 16.0349C36.22 14.0829 34.8995 13.0132 33.0752 13.0132H14.9109C11.9288 13.2843 9.60497 14.6398 7.86213 17.3509C5.91015 20.3873 6.7777 25.0323 7.86213 26.5686C3.30752 25.701 2.16886 27.3819 0 29.2797C3.5244 32.2619 5.96438 32.0461 7.86213 31.5039C6.50659 34.215 6.9969 38.2493 7.86213 40.124C9.48878 43.6484 12.7421 45.275 15.7243 45.275H33.8885C34.5211 45.1847 36.3285 44.7328 36.3285 42.2929C36.3285 40.124 34.9729 39.6157 33.0752 39.6157L16.5376 39.6157C14.7144 39.6157 12.7421 38.3347 12.7421 35.5152C12.7421 32.6956 15.2724 31.9908 16.5376 31.9908H34.4307C42.8351 32.2619 43.5128 39.8149 43.7659 42.8351C43.9545 45.0864 49.1031 45.8173 49.3417 42.8351C49.8839 36.0574 46.6306 31.7196 43.1062 29.0086C47.715 25.2131 51.2394 19.2487 48.2572 10.031C45.8715 2.65686 39.8529 0 32.533 0Z" fill="#FD392D"/>
</svg>
