<svg width="72" height="66" viewBox="0 0 72 66" fill="none" xmlns="http://www.w3.org/2000/svg">
<path d="M47.2957 0H13.28C11.8464 0.260657 9.05733 1.56394 9.37011 4.69183C9.6829 7.81972 12.107 8.86234 13.28 8.99267H47.2957C58.2433 8.99267 62.2314 14.3883 62.5442 23.4591C62.857 32.53 55.8974 37.5346 50.0326 37.5346L24.2276 37.5346C21.8817 37.5346 18.3335 36.2265 18.3335 32.3753C18.3335 28.8564 20.9694 27.4993 23.0546 27.369L48.0777 27.369C50.4367 27.369 52.6131 25.9403 52.6131 23.1252C52.6131 20.3101 50.7087 18.7673 48.0777 18.7673H21.8817C17.5808 19.1583 14.2295 21.1132 11.716 25.0231C8.90093 29.4021 10.1521 36.101 11.716 38.3166C5.14747 37.0655 3.50533 39.4896 0.377441 42.2265C5.46026 46.5273 8.97913 46.2162 11.716 45.4342C9.7611 49.344 10.4682 55.1623 11.716 57.8659C14.0619 62.9487 18.7538 65.2946 23.0546 65.2946H49.2507C50.163 65.1643 52.7695 64.5126 52.7695 60.9938C52.7695 57.8659 50.8146 57.1328 48.0777 57.1328L24.2276 57.1328C21.5982 57.1328 18.7538 55.2854 18.7538 51.2191C18.7538 47.1529 22.403 46.1363 24.2276 46.1363H50.0326C62.1532 46.5273 63.1306 57.4201 63.4956 61.7758C63.7676 65.0226 71.1928 66.0766 71.5368 61.7758C72.3188 52.0011 67.627 45.7453 62.5442 41.8355C69.1909 36.3617 74.2738 27.76 69.9729 14.4665C66.5322 3.83166 57.8524 0 47.2957 0Z" fill="#FD392D"/>
</svg>
